<?xml version="1.0" standalone="no"?>
<!DOCTYPE svg PUBLIC "-//W3C//DTD SVG 20010904//EN"
 "http://www.w3.org/TR/2001/REC-SVG-20010904/DTD/svg10.dtd">
<svg version="1.0" xmlns="http://www.w3.org/2000/svg"
 width="900.000000pt" height="780.000000pt" viewBox="0 0 900.000000 780.000000"
 preserveAspectRatio="xMidYMid meet">

<g transform="translate(0.000000,780.000000) scale(0.100000,-0.100000)"
fill="#000000" stroke="none">
<path d="M155 7776 c-173 -80 -206 -298 -63 -420 76 -66 80 -66 684 -66 l543
0 25 -82 c14 -46 38 -130 55 -188 16 -58 54 -190 84 -295 114 -390 350 -1206
403 -1387 30 -104 79 -275 110 -380 31 -106 60 -211 65 -234 4 -22 12 -51 18
-65 6 -13 30 -94 55 -179 25 -85 77 -265 116 -400 39 -135 94 -324 122 -420
65 -225 155 -536 223 -770 30 -102 101 -349 159 -550 58 -201 117 -388 132
-417 14 -29 41 -64 60 -78 77 -59 -113 -55 2546 -55 2375 0 2444 1 2485 19 23
11 59 38 81 61 120 123 83 319 -76 397 l-57 28 -2314 0 -2314 0 -38 125 c-120
404 -167 574 -163 582 3 4 1062 8 2353 8 l2347 0 52 26 c61 30 105 80 127 143
20 60 19 110 -5 175 l-21 55 100 293 c111 327 246 727 501 1483 305 905 278
832 311 845 41 17 103 89 124 143 34 90 5 199 -74 270 -81 73 229 67 -3491 67
l-3347 0 -63 218 c-237 823 -267 919 -291 958 -23 38 -86 85 -138 102 -24 9
-222 12 -705 12 l-671 0 -50 -24z m3339 -1803 c8 -39 116 -907 116 -932 l0
-21 -553 0 -553 0 -63 218 c-35 119 -96 330 -136 467 -39 138 -75 260 -79 273
l-7 22 635 0 634 0 6 -27z m1516 -463 l0 -490 -444 0 -444 0 -7 68 c-4 37 -31
256 -61 487 -30 231 -54 421 -54 422 0 2 227 3 505 3 l505 0 0 -490z m1510
469 c0 -26 -108 -894 -116 -931 l-6 -28 -439 0 -439 0 0 490 0 490 500 0 500
0 0 -21z m1770 18 c0 -5 -310 -923 -321 -949 l-11 -28 -525 0 -524 0 6 48 c3
26 28 220 55 432 27 212 52 411 56 443 l6 57 629 0 c346 0 629 -1 629 -3z
m-4606 -1514 c3 -16 24 -174 46 -353 23 -179 49 -388 59 -465 10 -77 16 -143
14 -147 -5 -9 -863 -11 -863 -3 0 3 -30 108 -66 233 -168 577 -207 709 -214
735 l-9 27 514 0 513 0 6 -27z m1326 -473 l0 -500 -345 0 c-268 0 -347 3 -350
13 -4 10 -125 962 -125 980 0 4 185 7 410 7 l410 0 0 -500z m1325 473 c-8 -42
-51 -376 -85 -658 -17 -137 -33 -265 -36 -282 l-6 -33 -344 0 -344 0 0 500 0
500 410 0 410 0 -5 -27z m1285 -470 l-167 -498 -367 -3 c-302 -2 -366 0 -366
11 0 8 18 151 39 318 22 167 50 386 62 487 l22 182 473 0 472 0 -168 -497z"/>
<path d="M3815 1445 c-239 -64 -415 -229 -491 -461 -26 -79 -29 -103 -29 -214
0 -104 4 -137 23 -195 68 -205 249 -377 467 -445 357 -110 725 102 841 485 28
91 26 248 -5 345 -78 254 -270 433 -520 486 -83 17 -220 17 -286 -1z"/>
<path d="M6855 1446 c-242 -69 -410 -226 -491 -461 -26 -72 -28 -93 -28 -215
0 -120 3 -143 26 -208 91 -254 342 -441 619 -459 306 -20 587 189 685 512 29
93 25 257 -8 357 -76 229 -236 388 -462 460 -81 26 -271 34 -341 14z"/>
</g>
</svg>
