<?xml version="1.0" standalone="no"?>
<!DOCTYPE svg PUBLIC "-//W3C//DTD SVG 20010904//EN"
 "http://www.w3.org/TR/2001/REC-SVG-20010904/DTD/svg10.dtd">
<svg version="1.0" xmlns="http://www.w3.org/2000/svg"
 width="640.000000pt" height="640.000000pt" viewBox="0 0 640.000000 640.000000"
 preserveAspectRatio="xMidYMid meet">

<g transform="translate(0.000000,640.000000) scale(0.100000,-0.100000)"
fill="#000000" stroke="none">
<path d="M2573 5580 c-60 -14 -141 -60 -178 -102 -48 -53 -86 -137 -94 -207
l-6 -56 -345 -5 c-341 -5 -345 -5 -383 -29 -22 -13 -50 -45 -67 -75 l-30 -51
0 -2050 c0 -1973 1 -2052 19 -2091 23 -51 81 -99 137 -113 57 -14 3103 -16
3153 -1 58 16 109 59 136 113 l25 51 0 2030 c0 1366 -3 2043 -10 2068 -12 42
-47 87 -93 120 -31 23 -39 23 -376 28 l-345 5 -12 68 c-28 147 -112 247 -245
288 -57 18 -97 19 -657 18 -329 -1 -611 -4 -629 -9z m1235 -152 c31 -8 59 -25
88 -53 54 -55 68 -111 63 -261 -5 -132 -22 -173 -94 -222 l-48 -32 -623 2
-622 3 -39 31 c-21 16 -48 50 -60 74 -20 39 -23 59 -23 175 0 145 12 186 68
238 59 56 58 56 675 57 401 0 582 -3 615 -12z m-1505 -418 c12 -100 71 -195
155 -249 96 -61 107 -62 774 -59 l603 3 63 29 c89 41 165 125 192 212 11 36
20 77 20 90 l0 24 318 0 c259 0 322 -3 338 -14 19 -14 19 -48 22 -2034 2
-1978 2 -2020 -17 -2043 l-19 -24 -1545 0 c-1505 0 -1545 0 -1566 19 l-21 19
0 2016 c0 1809 2 2019 16 2039 15 22 16 22 338 22 l323 0 6 -50z"/>
<path d="M1900 4358 c-19 -21 -20 -34 -20 -309 0 -267 1 -288 19 -310 l19 -24
291 0 c289 0 291 0 313 23 23 22 23 24 23 313 l0 291 -24 19 c-22 18 -43 19
-312 19 -284 0 -289 0 -309 -22z m490 -308 l0 -180 -180 0 -180 0 0 180 0 180
180 0 180 0 0 -180z"/>
<path d="M2820 4093 c-26 -33 -21 -79 11 -105 20 -17 75 -18 836 -18 l814 0
24 25 c31 30 33 77 5 105 -20 20 -33 20 -844 20 l-825 0 -21 -27z"/>
<path d="M1906 3319 l-26 -20 0 -294 c0 -290 0 -295 22 -315 21 -19 34 -20
309 -20 267 0 288 1 310 19 l24 19 0 292 0 292 -28 24 -28 24 -278 0 c-266 0
-279 -1 -305 -21z m484 -314 l0 -185 -180 0 -180 0 0 185 0 185 180 0 180 0 0
-185z"/>
<path d="M2831 3063 c-32 -27 -37 -73 -11 -106 l21 -27 824 0 824 0 21 22 c29
32 27 81 -6 107 -27 21 -32 21 -839 21 -759 0 -814 -1 -834 -17z"/>
<path d="M1900 2270 c-19 -19 -20 -33 -20 -313 0 -286 1 -294 21 -313 20 -18
40 -19 310 -19 287 0 289 0 311 23 23 22 23 24 23 313 l0 291 -24 19 c-22 18
-43 19 -312 19 -276 0 -290 -1 -309 -20z m490 -310 l0 -180 -180 0 -180 0 0
180 0 180 180 0 180 0 0 -180z"/>
<path d="M2821 2004 c-12 -15 -21 -33 -21 -41 0 -27 29 -71 52 -77 13 -3 384
-6 826 -6 l803 0 24 25 c31 30 33 77 5 105 -20 20 -33 20 -844 20 l-825 0 -20
-26z"/>
</g>
</svg>
